<?xml version="1.0" encoding="UTF-8" standalone="no"?>
<!DOCTYPE svg PUBLIC "-//W3C//DTD SVG 1.1//EN"
 "http://www.w3.org/Graphics/SVG/1.1/DTD/svg11.dtd">
<!-- Generated by graphviz version 2.49.0 (0)
 -->
<!-- Title: models_diagram Pages: 1 -->
<svg width="5265pt" height="841pt"
 viewBox="0.00 0.00 5265.18 841.00" xmlns="http://www.w3.org/2000/svg" xmlns:xlink="http://www.w3.org/1999/xlink">
<g id="graph0" class="graph" transform="scale(1 1) rotate(0) translate(4 837)">
<title>models_diagram</title>
<polygon fill="transparent" stroke="transparent" points="-4,4 -4,-837 5261.18,-837 5261.18,4 -4,4"/>
<!-- _diagram_info -->
<g id="node1" class="node">
<title>_diagram_info</title>
<text text-anchor="start" x="491.18" y="-818.6" font-family="Times,serif" font-size="13.00">Models diagram</text>
<text text-anchor="start" x="491.18" y="-804.6" font-family="Times,serif" font-size="13.00">Date: Sep 27 2021 &#45; 17:40</text>
<text text-anchor="start" x="491.18" y="-790.6" font-family="Times,serif" font-size="13.00">Migration version: 20210916091955</text>
<text text-anchor="start" x="491.18" y="-776.6" font-family="Times,serif" font-size="13.00">Generated by RailRoady 1.6.0</text>
<text text-anchor="start" x="491.18" y="-762.6" font-family="Times,serif" font-size="13.00">http://railroady.prestonlee.com</text>
</g>
<!-- ApplicationRecord -->
<g id="node2" class="node">
<title>ApplicationRecord</title>
<ellipse fill="none" stroke="black" cx="855.68" cy="-794" rx="95.58" ry="18"/>
<text text-anchor="middle" x="855.68" y="-790.3" font-family="Times,serif" font-size="14.00">ApplicationRecord</text>
</g>
<!-- Exam -->
<g id="node3" class="node">
<title>Exam</title>
<ellipse fill="none" stroke="black" cx="897.68" cy="-700" rx="37.09" ry="18"/>
<text text-anchor="middle" x="897.68" y="-696.3" font-family="Times,serif" font-size="14.00">Exam</text>
</g>
<!-- ApplicationRecord&#45;&gt;Exam -->
<g id="edge5" class="edge">
<title>ApplicationRecord&#45;&gt;Exam</title>
<path fill="none" stroke="black" d="M863.58,-775.7C871.14,-759.14 882.46,-734.34 889.96,-717.92"/>
</g>
<!-- ExamProject -->
<g id="node4" class="node">
<title>ExamProject</title>
<ellipse fill="none" stroke="black" cx="734.68" cy="-613" rx="70.39" ry="18"/>
<text text-anchor="middle" x="734.68" y="-609.3" font-family="Times,serif" font-size="14.00">ExamProject</text>
</g>
<!-- ApplicationRecord&#45;&gt;ExamProject -->
<g id="edge7" class="edge">
<title>ApplicationRecord&#45;&gt;ExamProject</title>
<path fill="none" stroke="black" d="M844.08,-775.84C820.89,-741.53 769.08,-664.89 746.07,-630.85"/>
</g>
<!-- Project -->
<g id="node5" class="node">
<title>Project</title>
<ellipse fill="none" stroke="black" cx="830.68" cy="-526" rx="44.39" ry="18"/>
<text text-anchor="middle" x="830.68" y="-522.3" font-family="Times,serif" font-size="14.00">Project</text>
</g>
<!-- ApplicationRecord&#45;&gt;Project -->
<g id="edge11" class="edge">
<title>ApplicationRecord&#45;&gt;Project</title>
<path fill="none" stroke="black" d="M854.08,-775.96C849.58,-728.03 836.83,-592.42 832.3,-544.25"/>
</g>
<!-- User -->
<g id="node6" class="node">
<title>User</title>
<ellipse fill="none" stroke="black" cx="821.68" cy="-439" rx="33.29" ry="18"/>
<text text-anchor="middle" x="821.68" y="-435.3" font-family="Times,serif" font-size="14.00">User</text>
</g>
<!-- ApplicationRecord&#45;&gt;User -->
<g id="edge16" class="edge">
<title>ApplicationRecord&#45;&gt;User</title>
<path fill="none" stroke="black" d="M813.98,-777.7C750.43,-754.1 636.68,-710.51 636.68,-701 636.68,-701 636.68,-701 636.68,-525 636.68,-458.9 735.4,-444.01 788.61,-440.79"/>
</g>
<!-- UserExam -->
<g id="node7" class="node">
<title>UserExam</title>
<ellipse fill="none" stroke="black" cx="1025.68" cy="-352" rx="59.59" ry="18"/>
<text text-anchor="middle" x="1025.68" y="-348.3" font-family="Times,serif" font-size="14.00">UserExam</text>
</g>
<!-- ApplicationRecord&#45;&gt;UserExam -->
<g id="edge17" class="edge">
<title>ApplicationRecord&#45;&gt;UserExam</title>
<path fill="none" stroke="black" d="M927.9,-782.13C973.44,-770.71 1023.68,-747.56 1023.68,-701 1023.68,-701 1023.68,-701 1023.68,-438 1023.68,-414.53 1024.45,-387.42 1025.04,-370.25"/>
</g>
<!-- UserProject -->
<g id="node8" class="node">
<title>UserProject</title>
<ellipse fill="none" stroke="black" cx="881.68" cy="-352" rx="66.09" ry="18"/>
<text text-anchor="middle" x="881.68" y="-348.3" font-family="Times,serif" font-size="14.00">UserProject</text>
</g>
<!-- ApplicationRecord&#45;&gt;UserProject -->
<g id="edge18" class="edge">
<title>ApplicationRecord&#45;&gt;UserProject</title>
<path fill="none" stroke="black" d="M907.04,-778.75C943.01,-765.27 984.68,-741.02 984.68,-701 984.68,-701 984.68,-701 984.68,-438 984.68,-403.22 949.32,-380.02 920.04,-366.76"/>
</g>
<!-- Exam&#45;&gt;ExamProject -->
<g id="edge3" class="edge">
<title>Exam&#45;&gt;ExamProject</title>
<path fill="none" stroke="#a00bd9" d="M864.22,-681.55C837.79,-667.77 800.89,-648.53 773.23,-634.1"/>
<polygon fill="#a00bd9" stroke="#a00bd9" points="864.41,-681.65 871.2,-690.26 868.85,-683.96 873.28,-686.27 873.28,-686.27 873.28,-686.27 868.85,-683.96 875.36,-682.28 864.41,-681.65 864.41,-681.65"/>
<polygon fill="#a00bd9" stroke="#a00bd9" points="773.1,-634.03 766.31,-625.42 768.66,-631.72 764.23,-629.41 764.23,-629.41 764.23,-629.41 768.66,-631.72 762.15,-633.4 773.1,-634.03 773.1,-634.03"/>
</g>
<!-- Exam&#45;&gt;Project -->
<g id="edge4" class="edge">
<title>Exam&#45;&gt;Project</title>
<path fill="none" stroke="#37a1e6" d="M888.35,-672.2C878.53,-644.42 862.35,-599.84 846.68,-562 845.49,-559.13 844.21,-556.15 842.9,-553.19"/>
<polygon fill="#37a1e6" stroke="#37a1e6" points="888.47,-672.54 887.55,-683.47 890.13,-677.26 891.79,-681.97 891.79,-681.97 891.79,-681.97 890.13,-677.26 896.04,-680.48 888.47,-672.54 888.47,-672.54"/>
<polygon fill="#37a1e6" stroke="#37a1e6" points="842.86,-553.09 842.85,-542.13 840.8,-548.54 838.74,-543.98 838.74,-543.98 838.74,-543.98 840.8,-548.54 834.64,-545.83 842.86,-553.09 842.86,-553.09"/>
</g>
<!-- Exam&#45;&gt;User -->
<g id="edge2" class="edge">
<title>Exam&#45;&gt;User</title>
<path fill="none" stroke="#8020eb" d="M901.13,-671.7C904.78,-633.39 907.19,-562.29 883.68,-508 875.78,-489.74 860.89,-473.15 847.68,-460.93"/>
<polygon fill="#8020eb" stroke="#8020eb" points="901.09,-672.09 895.56,-681.56 900.56,-677.06 900.03,-682.03 900.03,-682.03 900.03,-682.03 900.56,-677.06 904.51,-682.51 901.09,-672.09 901.09,-672.09"/>
<polygon fill="#8020eb" stroke="#8020eb" points="847.64,-460.9 843.15,-450.89 843.91,-457.58 840.17,-454.26 840.17,-454.26 840.17,-454.26 843.91,-457.58 837.18,-457.62 847.64,-460.9 847.64,-460.9"/>
</g>
<!-- Exam&#45;&gt;UserExam -->
<g id="edge1" class="edge">
<title>Exam&#45;&gt;UserExam</title>
<path fill="none" stroke="#9c571c" d="M919.82,-675.84C932.8,-659.79 946.68,-637.21 946.68,-614 946.68,-614 946.68,-614 946.68,-438 946.68,-410.91 968.48,-388.83 989.18,-373.96"/>
<polygon fill="#9c571c" stroke="#9c571c" points="919.68,-676 909.76,-680.68 916.43,-679.8 913.19,-683.6 913.19,-683.6 913.19,-683.6 916.43,-679.8 916.61,-686.53 919.68,-676 919.68,-676"/>
<polygon fill="#9c571c" stroke="#9c571c" points="989.34,-373.86 1000.14,-371.96 993.47,-371.05 997.61,-368.24 997.61,-368.24 997.61,-368.24 993.47,-371.05 995.08,-364.52 989.34,-373.86 989.34,-373.86"/>
</g>
<!-- ExamProject&#45;&gt;Project -->
<g id="edge6" class="edge">
<title>ExamProject&#45;&gt;Project</title>
<path fill="none" stroke="#89d2bf" d="M760.9,-588.79C774.7,-576.57 791.55,-561.65 805.23,-549.53"/>
<polygon fill="#89d2bf" stroke="#89d2bf" points="760.68,-588.98 750.21,-592.24 756.94,-592.3 753.19,-595.61 753.19,-595.61 753.19,-595.61 756.94,-592.3 756.18,-598.98 760.68,-588.98 760.68,-588.98"/>
<polygon fill="#89d2bf" stroke="#89d2bf" points="805.39,-549.39 815.86,-546.13 809.14,-546.08 812.88,-542.76 812.88,-542.76 812.88,-542.76 809.14,-546.08 809.9,-539.39 805.39,-549.39 805.39,-549.39"/>
</g>
<!-- Project&#45;&gt;User -->
<g id="edge9" class="edge">
<title>Project&#45;&gt;User</title>
<path fill="none" stroke="#50fe29" d="M821.5,-498.07C819.9,-488.21 818.71,-477.04 818.22,-467.15"/>
<polygon fill="#50fe29" stroke="#50fe29" points="821.56,-498.38 818.98,-509.04 822.48,-503.29 823.4,-508.21 823.4,-508.21 823.4,-508.21 822.48,-503.29 827.82,-507.38 821.56,-498.38 821.56,-498.38"/>
<polygon fill="#50fe29" stroke="#50fe29" points="818.21,-467.05 822.45,-456.93 818.08,-462.05 817.96,-457.05 817.96,-457.05 817.96,-457.05 818.08,-462.05 813.46,-457.16 818.21,-467.05 818.21,-467.05"/>
</g>
<!-- Project&#45;&gt;User -->
<g id="edge10" class="edge">
<title>Project&#45;&gt;User</title>
<path fill="none" stroke="#85e708" d="M834.14,-497.59C833.63,-487.67 832.43,-476.5 830.82,-466.64"/>
<polygon fill="#85e708" stroke="#85e708" points="834.14,-497.8 829.91,-507.92 834.28,-502.8 834.41,-507.8 834.41,-507.8 834.41,-507.8 834.28,-502.8 838.91,-507.68 834.14,-497.8 834.14,-497.8"/>
<polygon fill="#85e708" stroke="#85e708" points="830.78,-466.42 833.34,-455.76 829.85,-461.51 828.92,-456.6 828.92,-456.6 828.92,-456.6 829.85,-461.51 824.5,-457.43 830.78,-466.42 830.78,-466.42"/>
</g>
<!-- Project&#45;&gt;UserProject -->
<g id="edge8" class="edge">
<title>Project&#45;&gt;UserProject</title>
<path fill="none" stroke="#30f5fc" d="M845.07,-499.15C846.67,-496.09 848.24,-492.99 849.68,-490 856.6,-475.65 859.18,-472.28 863.68,-457 871.21,-431.44 875.99,-401.35 878.72,-380.14"/>
<polygon fill="#30f5fc" stroke="#30f5fc" points="845.01,-499.26 836.33,-505.96 842.65,-503.67 840.29,-508.08 840.29,-508.08 840.29,-508.08 842.65,-503.67 844.26,-510.2 845.01,-499.26 845.01,-499.26"/>
<polygon fill="#30f5fc" stroke="#30f5fc" points="878.72,-380.13 884.4,-370.75 879.33,-375.17 879.93,-370.21 879.93,-370.21 879.93,-370.21 879.33,-375.17 875.47,-369.66 878.72,-380.13 878.72,-380.13"/>
</g>
<!-- User&#45;&gt;UserExam -->
<g id="edge14" class="edge">
<title>User&#45;&gt;UserExam</title>
<path fill="none" stroke="#f72d56" d="M855.37,-422.15C877.25,-412.03 906.48,-398.82 932.68,-388 947.73,-381.79 964.31,-375.4 979.26,-369.81"/>
<polygon fill="#f72d56" stroke="#f72d56" points="855.25,-422.21 844.28,-422.35 850.71,-424.32 846.18,-426.43 846.18,-426.43 846.18,-426.43 850.71,-424.32 848.07,-430.51 855.25,-422.21 855.25,-422.21"/>
<polygon fill="#f72d56" stroke="#f72d56" points="979.44,-369.75 990.38,-370.48 984.12,-368.01 988.81,-366.27 988.81,-366.27 988.81,-366.27 984.12,-368.01 987.25,-362.05 979.44,-369.75 979.44,-369.75"/>
</g>
<!-- User&#45;&gt;UserProject -->
<g id="edge15" class="edge">
<title>User&#45;&gt;UserProject</title>
<path fill="none" stroke="#ef368c" d="M838.8,-413.76C846.71,-402.55 856.09,-389.26 864.06,-377.97"/>
<polygon fill="#ef368c" stroke="#ef368c" points="838.74,-413.84 829.29,-419.42 835.85,-417.93 832.97,-422.01 832.97,-422.01 832.97,-422.01 835.85,-417.93 836.64,-424.61 838.74,-413.84 838.74,-413.84"/>
<polygon fill="#ef368c" stroke="#ef368c" points="864.07,-377.96 873.51,-372.38 866.95,-373.87 869.83,-369.79 869.83,-369.79 869.83,-369.79 866.95,-373.87 866.16,-367.19 864.07,-377.96 864.07,-377.96"/>
</g>
<!-- Mailboxer::Message -->
<g id="node33" class="node">
<title>Mailboxer::Message</title>
<ellipse fill="none" stroke="black" cx="651.68" cy="-352" rx="104.78" ry="18"/>
<text text-anchor="middle" x="651.68" y="-348.3" font-family="Times,serif" font-size="14.00">Mailboxer::Message</text>
</g>
<!-- User&#45;&gt;Mailboxer::Message -->
<g id="edge12" class="edge">
<title>User&#45;&gt;Mailboxer::Message</title>
<path fill="none" stroke="#574005" d="M780.2,-430.77C756.64,-425.46 727.25,-416.72 703.68,-403 692.18,-396.31 681.27,-386.56 672.44,-377.44"/>
<polygon fill="#574005" stroke="#574005" points="780.45,-430.82 789.3,-437.31 785.34,-431.87 790.24,-432.91 790.24,-432.91 790.24,-432.91 785.34,-431.87 791.17,-428.51 780.45,-430.82 780.45,-430.82"/>
<polygon fill="#574005" stroke="#574005" points="672.35,-377.34 668.84,-366.95 668.95,-373.68 665.54,-370.01 665.54,-370.01 665.54,-370.01 668.95,-373.68 662.25,-373.07 672.35,-377.34 672.35,-377.34"/>
<text text-anchor="middle" x="738.68" y="-391.8" font-family="Times,serif" font-size="14.00">messages</text>
</g>
<!-- Mailboxer::Receipt -->
<g id="node35" class="node">
<title>Mailboxer::Receipt</title>
<ellipse fill="none" stroke="black" cx="622.68" cy="-178" rx="98.58" ry="18"/>
<text text-anchor="middle" x="622.68" y="-174.3" font-family="Times,serif" font-size="14.00">Mailboxer::Receipt</text>
</g>
<!-- User&#45;&gt;Mailboxer::Receipt -->
<g id="edge13" class="edge">
<title>User&#45;&gt;Mailboxer::Receipt</title>
<path fill="none" stroke="#cd3194" d="M810.29,-411.84C792.44,-372.85 754.98,-298.58 707.68,-247 692.24,-230.16 672.42,-214.05 655.81,-201.75"/>
<polygon fill="#cd3194" stroke="#cd3194" points="810.39,-412.06 810.4,-423.03 812.45,-416.62 814.5,-421.18 814.5,-421.18 814.5,-421.18 812.45,-416.62 818.6,-419.33 810.39,-412.06 810.39,-412.06"/>
<polygon fill="#cd3194" stroke="#cd3194" points="655.54,-201.55 650.09,-192.04 651.49,-198.62 647.45,-195.68 647.45,-195.68 647.45,-195.68 651.49,-198.62 644.8,-199.32 655.54,-201.55 655.54,-201.55"/>
<text text-anchor="middle" x="787.68" y="-304.8" font-family="Times,serif" font-size="14.00">receipts</text>
</g>
<!-- ActiveStorage::Attachment -->
<g id="node9" class="node">
<title>ActiveStorage::Attachment</title>
<ellipse fill="none" stroke="black" cx="1521.68" cy="-613" rx="135.68" ry="18"/>
<text text-anchor="middle" x="1521.68" y="-609.3" font-family="Times,serif" font-size="14.00">ActiveStorage::Attachment</text>
</g>
<!-- ActiveStorage::Blob -->
<g id="node13" class="node">
<title>ActiveStorage::Blob</title>
<ellipse fill="none" stroke="black" cx="1513.68" cy="-439" rx="102.88" ry="18"/>
<text text-anchor="middle" x="1513.68" y="-435.3" font-family="Times,serif" font-size="14.00">ActiveStorage::Blob</text>
</g>
<!-- ActiveStorage::Attachment&#45;&gt;ActiveStorage::Blob -->
<g id="edge20" class="edge">
<title>ActiveStorage::Attachment&#45;&gt;ActiveStorage::Blob</title>
<path fill="none" stroke="#029685" d="M1520.41,-584.64C1518.91,-552.41 1516.44,-499.18 1514.94,-467.07"/>
<polygon fill="#029685" stroke="#029685" points="1520.42,-584.89 1516.39,-595.09 1520.65,-589.88 1520.89,-594.88 1520.89,-594.88 1520.89,-594.88 1520.65,-589.88 1525.38,-594.67 1520.42,-584.89 1520.42,-584.89"/>
<polygon fill="#029685" stroke="#029685" points="1514.94,-467.04 1518.97,-456.84 1514.71,-462.05 1514.48,-457.05 1514.48,-457.05 1514.48,-457.05 1514.71,-462.05 1509.98,-457.26 1514.94,-467.04 1514.94,-467.04"/>
<text text-anchor="middle" x="1534.18" y="-522.3" font-family="Times,serif" font-size="14.00">blob</text>
</g>
<!-- ActiveStorage::Record -->
<g id="node17" class="node">
<title>ActiveStorage::Record</title>
<ellipse fill="none" stroke="black" cx="1717.68" cy="-526" rx="114.28" ry="18"/>
<text text-anchor="middle" x="1717.68" y="-522.3" font-family="Times,serif" font-size="14.00">ActiveStorage::Record</text>
</g>
<!-- ActiveStorage::Attachment&#45;&gt;ActiveStorage::Record -->
<g id="edge19" class="edge">
<title>ActiveStorage::Attachment&#45;&gt;ActiveStorage::Record</title>
<path fill="none" stroke="#d540c5" d="M1563.87,-591.14C1593.88,-577.63 1634.27,-560.12 1666.18,-546.82"/>
<polygon fill="#d540c5" stroke="#d540c5" points="1563.57,-591.28 1552.6,-591.31 1559.01,-593.35 1554.46,-595.41 1554.46,-595.41 1554.46,-595.41 1559.01,-593.35 1556.32,-599.51 1563.57,-591.28 1563.57,-591.28"/>
<polygon fill="#d540c5" stroke="#d540c5" points="1666.55,-546.66 1677.51,-546.99 1671.17,-544.75 1675.79,-542.83 1675.79,-542.83 1675.79,-542.83 1671.17,-544.75 1674.06,-538.67 1666.55,-546.66 1666.55,-546.66"/>
</g>
<!-- ActiveStorage::Blob::Analyzable -->
<g id="node10" class="node">
<title>ActiveStorage::Blob::Analyzable</title>
<polygon fill="none" stroke="black" stroke-dasharray="1,5" points="1634.18,-812 1389.18,-812 1389.18,-776 1634.18,-776 1634.18,-812"/>
<text text-anchor="middle" x="1511.68" y="-790.3" font-family="Times,serif" font-size="14.00">ActiveStorage::Blob::Analyzable</text>
</g>
<!-- ActiveStorage::Blob::Identifiable -->
<g id="node11" class="node">
<title>ActiveStorage::Blob::Identifiable</title>
<polygon fill="none" stroke="black" stroke-dasharray="1,5" points="1900.68,-812 1652.68,-812 1652.68,-776 1900.68,-776 1900.68,-812"/>
<text text-anchor="middle" x="1776.68" y="-790.3" font-family="Times,serif" font-size="14.00">ActiveStorage::Blob::Identifiable</text>
</g>
<!-- ActiveStorage::Blob::Representable -->
<g id="node12" class="node">
<title>ActiveStorage::Blob::Representable</title>
<polygon fill="none" stroke="black" stroke-dasharray="1,5" points="2190.18,-812 1919.18,-812 1919.18,-776 2190.18,-776 2190.18,-812"/>
<text text-anchor="middle" x="2054.68" y="-790.3" font-family="Times,serif" font-size="14.00">ActiveStorage::Blob::Representable</text>
</g>
<!-- ActiveStorage::Blob&#45;&gt;ActiveStorage::Attachment -->
<g id="edge23" class="edge">
<title>ActiveStorage::Blob&#45;&gt;ActiveStorage::Attachment</title>
<path fill="none" stroke="#dccbc6" d="M1428.83,-453.41C1361.14,-467.95 1282.96,-495.82 1317.68,-544 1338.3,-572.6 1371.46,-589.35 1405.11,-599.11"/>
<polygon fill="#dccbc6" stroke="#dccbc6" points="1428.94,-453.38 1439.64,-455.76 1433.83,-452.37 1438.73,-451.36 1438.73,-451.36 1438.73,-451.36 1433.83,-452.37 1437.82,-446.95 1428.94,-453.38 1428.94,-453.38"/>
<polygon fill="#dccbc6" stroke="#dccbc6" points="1405.42,-599.19 1413.9,-606.14 1410.25,-600.49 1415.07,-601.79 1415.07,-601.79 1415.07,-601.79 1410.25,-600.49 1416.25,-597.45 1405.42,-599.19 1405.42,-599.19"/>
<text text-anchor="middle" x="1415.68" y="-522.3" font-family="Times,serif" font-size="14.00">preview_image_attachment</text>
</g>
<!-- ActiveStorage::Blob&#45;&gt;ActiveStorage::Attachment -->
<g id="edge25" class="edge">
<title>ActiveStorage::Blob&#45;&gt;ActiveStorage::Attachment</title>
<path fill="none" stroke="#305bb6" d="M1532.94,-465.31C1541.04,-477.52 1549.54,-492.79 1553.68,-508 1560.96,-534.71 1549.42,-564.92 1538.22,-585.87"/>
<polygon fill="#305bb6" stroke="#305bb6" points="1532.88,-465.22 1530.87,-454.44 1530.03,-461.11 1527.18,-457 1527.18,-457 1527.18,-457 1530.03,-461.11 1523.48,-459.57 1532.88,-465.22 1532.88,-465.22"/>
<polygon fill="#305bb6" stroke="#305bb6" points="1538.09,-586.1 1529.25,-592.59 1535.63,-590.45 1533.16,-594.8 1533.16,-594.8 1533.16,-594.8 1535.63,-590.45 1537.08,-597.02 1538.09,-586.1 1538.09,-586.1"/>
</g>
<!-- ActiveStorage::Blob&#45;&gt;ActiveStorage::Blob -->
<g id="edge24" class="edge">
<title>ActiveStorage::Blob&#45;&gt;ActiveStorage::Blob</title>
<path fill="none" stroke="#12378f" d="M1617.82,-445.39C1627.95,-444.1 1634.37,-441.97 1634.37,-439 1634.37,-436.03 1627.95,-433.9 1617.82,-432.61"/>
<polygon fill="#12378f" stroke="#12378f" points="1617.51,-445.41 1607.14,-441.85 1612.53,-445.88 1607.55,-446.34 1607.55,-446.34 1607.55,-446.34 1612.53,-445.88 1607.97,-450.82 1617.51,-445.41 1617.51,-445.41"/>
<polygon fill="#12378f" stroke="#12378f" points="1617.51,-432.59 1607.97,-427.18 1612.53,-432.12 1607.55,-431.66 1607.55,-431.66 1607.55,-431.66 1612.53,-432.12 1607.14,-436.15 1617.51,-432.59 1617.51,-432.59"/>
<text text-anchor="middle" x="1706.87" y="-435.3" font-family="Times,serif" font-size="14.00">preview_image_blob</text>
</g>
<!-- ActiveStorage::VariantRecord -->
<g id="node19" class="node">
<title>ActiveStorage::VariantRecord</title>
<ellipse fill="none" stroke="black" cx="1651.68" cy="-352" rx="148.37" ry="18"/>
<text text-anchor="middle" x="1651.68" y="-348.3" font-family="Times,serif" font-size="14.00">ActiveStorage::VariantRecord</text>
</g>
<!-- ActiveStorage::Blob&#45;&gt;ActiveStorage::VariantRecord -->
<g id="edge22" class="edge">
<title>ActiveStorage::Blob&#45;&gt;ActiveStorage::VariantRecord</title>
<path fill="none" stroke="#44aa3c" d="M1596.13,-422.91C1608.32,-418.02 1620.02,-411.56 1629.68,-403 1636.62,-396.85 1641.47,-388.11 1644.81,-379.65"/>
<polygon fill="#44aa3c" stroke="#44aa3c" points="1596.12,-422.91 1585.18,-422.12 1591.42,-424.63 1586.73,-426.34 1586.73,-426.34 1586.73,-426.34 1591.42,-424.63 1588.27,-430.57 1596.12,-422.91 1596.12,-422.91"/>
<polygon fill="#44aa3c" stroke="#44aa3c" points="1644.87,-379.49 1652.34,-371.47 1646.47,-374.76 1648.08,-370.02 1648.08,-370.02 1648.08,-370.02 1646.47,-374.76 1643.82,-368.58 1644.87,-379.49 1644.87,-379.49"/>
<text text-anchor="middle" x="1696.68" y="-391.8" font-family="Times,serif" font-size="14.00">variant_records</text>
</g>
<!-- ActiveStorage::Current -->
<g id="node14" class="node">
<title>ActiveStorage::Current</title>
<polygon fill="none" stroke="black" points="2466.68,-718 2284.68,-718 2284.68,-682 2466.68,-682 2466.68,-718"/>
<text text-anchor="middle" x="2375.68" y="-696.3" font-family="Times,serif" font-size="14.00">ActiveStorage::Current</text>
</g>
<!-- ActiveStorage::Filename -->
<g id="node15" class="node">
<title>ActiveStorage::Filename</title>
<polygon fill="none" stroke="black" points="2752.68,-812 2560.68,-812 2560.68,-776 2752.68,-776 2752.68,-812"/>
<text text-anchor="middle" x="2656.68" y="-790.3" font-family="Times,serif" font-size="14.00">ActiveStorage::Filename</text>
</g>
<!-- ActiveStorage::Preview -->
<g id="node16" class="node">
<title>ActiveStorage::Preview</title>
<polygon fill="none" stroke="black" points="2954.68,-812 2770.68,-812 2770.68,-776 2954.68,-776 2954.68,-812"/>
<text text-anchor="middle" x="2862.68" y="-790.3" font-family="Times,serif" font-size="14.00">ActiveStorage::Preview</text>
</g>
<!-- ActiveStorage::Record&#45;&gt;ActiveStorage::Attachment -->
<g id="edge21" class="edge">
<title>ActiveStorage::Record&#45;&gt;ActiveStorage::Attachment</title>
<path fill="none" stroke="black" d="M1685.29,-543.42C1652.19,-558.52 1600.84,-580.78 1564.45,-595.81"/>
</g>
<!-- ActiveStorage::Record&#45;&gt;ActiveStorage::Blob -->
<g id="edge26" class="edge">
<title>ActiveStorage::Record&#45;&gt;ActiveStorage::Blob</title>
<path fill="none" stroke="black" d="M1679.31,-509.01C1642.72,-493.77 1587.95,-470.95 1551.54,-455.77"/>
</g>
<!-- ActiveStorage::Record&#45;&gt;ActiveStorage::VariantRecord -->
<g id="edge31" class="edge">
<title>ActiveStorage::Record&#45;&gt;ActiveStorage::VariantRecord</title>
<path fill="none" stroke="black" d="M1743.85,-508.26C1760.1,-496.21 1779.57,-478.35 1788.68,-457 1794.96,-442.28 1794.69,-435.83 1788.68,-421 1777.76,-394.05 1751.12,-377.72 1724.2,-367.84"/>
</g>
<!-- ActiveStorage::Variant -->
<g id="node18" class="node">
<title>ActiveStorage::Variant</title>
<polygon fill="none" stroke="black" points="3150.68,-812 2972.68,-812 2972.68,-776 3150.68,-776 3150.68,-812"/>
<text text-anchor="middle" x="3061.68" y="-790.3" font-family="Times,serif" font-size="14.00">ActiveStorage::Variant</text>
</g>
<!-- ActiveStorage::VariantRecord&#45;&gt;ActiveStorage::Attachment -->
<g id="edge29" class="edge">
<title>ActiveStorage::VariantRecord&#45;&gt;ActiveStorage::Attachment</title>
<path fill="none" stroke="#74ad39" d="M1750.12,-369.84C1762.43,-374.49 1774.31,-380.43 1784.68,-388 1844.18,-431.44 1887.03,-486.74 1840.68,-544 1826.55,-561.46 1707.44,-583.39 1618.88,-597.55"/>
<polygon fill="#74ad39" stroke="#74ad39" points="1750.09,-369.83 1742.13,-362.28 1745.37,-368.18 1740.65,-366.52 1740.65,-366.52 1740.65,-366.52 1745.37,-368.18 1739.16,-370.77 1750.09,-369.83 1750.09,-369.83"/>
<polygon fill="#74ad39" stroke="#74ad39" points="1618.66,-597.58 1608.08,-594.71 1613.73,-598.37 1608.79,-599.15 1608.79,-599.15 1608.79,-599.15 1613.73,-598.37 1609.49,-603.59 1618.66,-597.58 1618.66,-597.58"/>
<text text-anchor="middle" x="1927.18" y="-478.8" font-family="Times,serif" font-size="14.00">image_attachment</text>
</g>
<!-- ActiveStorage::VariantRecord&#45;&gt;ActiveStorage::Blob -->
<g id="edge28" class="edge">
<title>ActiveStorage::VariantRecord&#45;&gt;ActiveStorage::Blob</title>
<path fill="none" stroke="#e90735" d="M1552.32,-370.61C1543.24,-375.17 1534.79,-380.87 1527.68,-388 1521.68,-394.01 1518.2,-402.37 1516.2,-410.54"/>
<polygon fill="#e90735" stroke="#e90735" points="1552.48,-370.54 1563.45,-370.53 1557.04,-368.48 1561.6,-366.43 1561.6,-366.43 1561.6,-366.43 1557.04,-368.48 1559.74,-362.33 1552.48,-370.54 1552.48,-370.54"/>
<polygon fill="#e90735" stroke="#e90735" points="1516.16,-410.74 1509.95,-419.78 1515.27,-415.66 1514.38,-420.58 1514.38,-420.58 1514.38,-420.58 1515.27,-415.66 1518.81,-421.39 1516.16,-410.74 1516.16,-410.74"/>
</g>
<!-- ActiveStorage::VariantRecord&#45;&gt;ActiveStorage::Blob -->
<g id="edge30" class="edge">
<title>ActiveStorage::VariantRecord&#45;&gt;ActiveStorage::Blob</title>
<path fill="none" stroke="#06a2c8" d="M1571.31,-371.75C1561.43,-376.1 1551.92,-381.45 1543.68,-388 1535.77,-394.29 1529.46,-403.29 1524.72,-411.92"/>
<polygon fill="#06a2c8" stroke="#06a2c8" points="1571.61,-371.63 1582.56,-372.04 1576.24,-369.75 1580.87,-367.87 1580.87,-367.87 1580.87,-367.87 1576.24,-369.75 1579.18,-363.7 1571.61,-371.63 1571.61,-371.63"/>
<polygon fill="#06a2c8" stroke="#06a2c8" points="1524.65,-412.05 1516.15,-418.98 1522.41,-416.52 1520.18,-420.99 1520.18,-420.99 1520.18,-420.99 1522.41,-416.52 1524.2,-423 1524.65,-412.05 1524.65,-412.05"/>
<text text-anchor="middle" x="1584.68" y="-391.8" font-family="Times,serif" font-size="14.00">image_blob</text>
</g>
<!-- ActiveStorage::VariantWithRecord -->
<g id="node20" class="node">
<title>ActiveStorage::VariantWithRecord</title>
<polygon fill="none" stroke="black" points="3430.68,-812 3168.68,-812 3168.68,-776 3430.68,-776 3430.68,-812"/>
<text text-anchor="middle" x="3299.68" y="-790.3" font-family="Times,serif" font-size="14.00">ActiveStorage::VariantWithRecord</text>
</g>
<!-- ActiveStorage::Variation -->
<g id="node21" class="node">
<title>ActiveStorage::Variation</title>
<polygon fill="none" stroke="black" points="3640.18,-812 3449.18,-812 3449.18,-776 3640.18,-776 3640.18,-812"/>
<text text-anchor="middle" x="3544.68" y="-790.3" font-family="Times,serif" font-size="14.00">ActiveStorage::Variation</text>
</g>
<!-- ActionMailbox::InboundEmail::Incineratable::Incineration -->
<g id="node22" class="node">
<title>ActionMailbox::InboundEmail::Incineratable::Incineration</title>
<polygon fill="none" stroke="black" points="4084.68,-812 3658.68,-812 3658.68,-776 4084.68,-776 4084.68,-812"/>
<text text-anchor="middle" x="3871.68" y="-790.3" font-family="Times,serif" font-size="14.00">ActionMailbox::InboundEmail::Incineratable::Incineration</text>
</g>
<!-- ActionMailbox::InboundEmail::Incineratable -->
<g id="node23" class="node">
<title>ActionMailbox::InboundEmail::Incineratable</title>
<polygon fill="none" stroke="black" stroke-dasharray="1,5" points="4434.18,-812 4103.18,-812 4103.18,-776 4434.18,-776 4434.18,-812"/>
<text text-anchor="middle" x="4268.68" y="-790.3" font-family="Times,serif" font-size="14.00">ActionMailbox::InboundEmail::Incineratable</text>
</g>
<!-- ActionMailbox::InboundEmail::MessageId -->
<g id="node24" class="node">
<title>ActionMailbox::InboundEmail::MessageId</title>
<polygon fill="none" stroke="black" stroke-dasharray="1,5" points="4766.68,-812 4452.68,-812 4452.68,-776 4766.68,-776 4766.68,-812"/>
<text text-anchor="middle" x="4609.68" y="-790.3" font-family="Times,serif" font-size="14.00">ActionMailbox::InboundEmail::MessageId</text>
</g>
<!-- ActionMailbox::InboundEmail::Routable -->
<g id="node25" class="node">
<title>ActionMailbox::InboundEmail::Routable</title>
<polygon fill="none" stroke="black" stroke-dasharray="1,5" points="5084.68,-812 4784.68,-812 4784.68,-776 5084.68,-776 5084.68,-812"/>
<text text-anchor="middle" x="4934.68" y="-790.3" font-family="Times,serif" font-size="14.00">ActionMailbox::InboundEmail::Routable</text>
</g>
<!-- ActionMailbox::InboundEmail -->
<g id="node26" class="node">
<title>ActionMailbox::InboundEmail</title>
<ellipse fill="none" stroke="black" cx="1255.68" cy="-700" rx="147.57" ry="18"/>
<text text-anchor="middle" x="1255.68" y="-696.3" font-family="Times,serif" font-size="14.00">ActionMailbox::InboundEmail</text>
</g>
<!-- ActionMailbox::InboundEmail&#45;&gt;ActiveStorage::Attachment -->
<g id="edge32" class="edge">
<title>ActionMailbox::InboundEmail&#45;&gt;ActiveStorage::Attachment</title>
<path fill="none" stroke="#74b898" d="M1315.52,-679.88C1359.48,-665.83 1418.92,-646.84 1462.68,-632.85"/>
<polygon fill="#74b898" stroke="#74b898" points="1315.24,-679.97 1304.35,-678.73 1310.48,-681.49 1305.72,-683.01 1305.72,-683.01 1305.72,-683.01 1310.48,-681.49 1307.09,-687.3 1315.24,-679.97 1315.24,-679.97"/>
<polygon fill="#74b898" stroke="#74b898" points="1462.8,-632.82 1473.69,-634.06 1467.56,-631.29 1472.32,-629.77 1472.32,-629.77 1472.32,-629.77 1467.56,-631.29 1470.95,-625.49 1462.8,-632.82 1462.8,-632.82"/>
<text text-anchor="middle" x="1485.68" y="-652.8" font-family="Times,serif" font-size="14.00">raw_email_attachment</text>
</g>
<!-- ActionMailbox::InboundEmail&#45;&gt;ActiveStorage::Blob -->
<g id="edge33" class="edge">
<title>ActionMailbox::InboundEmail&#45;&gt;ActiveStorage::Blob</title>
<path fill="none" stroke="#86d74e" d="M1238.52,-672.98C1222.16,-644.66 1202.4,-598.55 1219.68,-562 1253.36,-490.79 1340.69,-461.06 1411.48,-448.69"/>
<polygon fill="#86d74e" stroke="#86d74e" points="1238.71,-673.3 1240.02,-684.18 1241.29,-677.58 1243.88,-681.86 1243.88,-681.86 1243.88,-681.86 1241.29,-677.58 1247.73,-679.53 1238.71,-673.3 1238.71,-673.3"/>
<polygon fill="#86d74e" stroke="#86d74e" points="1411.48,-448.69 1422.08,-451.49 1416.41,-447.87 1421.35,-447.05 1421.35,-447.05 1421.35,-447.05 1416.41,-447.87 1420.61,-442.62 1411.48,-448.69 1411.48,-448.69"/>
<text text-anchor="middle" x="1275.18" y="-565.8" font-family="Times,serif" font-size="14.00">raw_email_blob</text>
</g>
<!-- ActionMailbox::Record -->
<g id="node27" class="node">
<title>ActionMailbox::Record</title>
<ellipse fill="none" stroke="black" cx="1255.68" cy="-794" rx="115.88" ry="18"/>
<text text-anchor="middle" x="1255.68" y="-790.3" font-family="Times,serif" font-size="14.00">ActionMailbox::Record</text>
</g>
<!-- ActionMailbox::Record&#45;&gt;ActionMailbox::InboundEmail -->
<g id="edge34" class="edge">
<title>ActionMailbox::Record&#45;&gt;ActionMailbox::InboundEmail</title>
<path fill="none" stroke="black" d="M1255.68,-775.7C1255.68,-759.25 1255.68,-734.65 1255.68,-718.23"/>
</g>
<!-- ActionText::Record -->
<g id="node28" class="node">
<title>ActionText::Record</title>
<ellipse fill="none" stroke="black" cx="1774.68" cy="-613" rx="98.58" ry="18"/>
<text text-anchor="middle" x="1774.68" y="-609.3" font-family="Times,serif" font-size="14.00">ActionText::Record</text>
</g>
<!-- ActionText::RichText -->
<g id="node29" class="node">
<title>ActionText::RichText</title>
<ellipse fill="none" stroke="black" cx="1774.68" cy="-700" rx="106.68" ry="18"/>
<text text-anchor="middle" x="1774.68" y="-696.3" font-family="Times,serif" font-size="14.00">ActionText::RichText</text>
</g>
<!-- ActionText::Record&#45;&gt;ActionText::RichText -->
<g id="edge38" class="edge">
<title>ActionText::Record&#45;&gt;ActionText::RichText</title>
<path fill="none" stroke="black" d="M1780.23,-631.18C1781.83,-645.92 1781.83,-667.05 1780.23,-681.8"/>
</g>
<!-- ActionText::RichText&#45;&gt;ActiveStorage::Attachment -->
<g id="edge36" class="edge">
<title>ActionText::RichText&#45;&gt;ActiveStorage::Attachment</title>
<path fill="none" stroke="#2f6e66" d="M1692.3,-684.63C1668.21,-679.33 1642.07,-672.49 1618.68,-664 1598.06,-656.51 1576.24,-645.56 1558.53,-635.82"/>
<polygon fill="#2f6e66" stroke="#2f6e66" points="1692.36,-684.64 1701.19,-691.13 1697.25,-685.69 1702.13,-686.73 1702.13,-686.73 1702.13,-686.73 1697.25,-685.69 1703.08,-682.33 1692.36,-684.64 1692.36,-684.64"/>
<polygon fill="#2f6e66" stroke="#2f6e66" points="1558.4,-635.75 1551.88,-626.94 1554.04,-633.31 1549.68,-630.86 1549.68,-630.86 1549.68,-630.86 1554.04,-633.31 1547.48,-634.79 1558.4,-635.75 1558.4,-635.75"/>
<text text-anchor="middle" x="1694.68" y="-652.8" font-family="Times,serif" font-size="14.00">embeds_attachments</text>
</g>
<!-- ActionText::RichText&#45;&gt;ActiveStorage::Blob -->
<g id="edge37" class="edge">
<title>ActionText::RichText&#45;&gt;ActiveStorage::Blob</title>
<path fill="none" stroke="#f8a71b" d="M1827.9,-679.01C1848.89,-668.19 1870.79,-652.54 1882.68,-631 1910.6,-580.43 1886.21,-543.56 1840.68,-508 1805.17,-480.26 1692.23,-461.14 1608.98,-450.4"/>
<polygon fill="#f8a71b" stroke="#f8a71b" points="1827.67,-679.12 1816.71,-679.45 1823.17,-681.31 1818.68,-683.49 1818.68,-683.49 1818.68,-683.49 1823.17,-681.31 1820.65,-687.54 1827.67,-679.12 1827.67,-679.12"/>
<polygon fill="#f8a71b" stroke="#f8a71b" points="1608.91,-450.39 1599.55,-444.66 1603.95,-449.76 1598.99,-449.13 1598.99,-449.13 1598.99,-449.13 1603.95,-449.76 1598.42,-453.59 1608.91,-450.39 1608.91,-450.39"/>
<text text-anchor="middle" x="1944.18" y="-565.8" font-family="Times,serif" font-size="14.00">embeds_blobs</text>
</g>
<!-- ActionText::RichText&#45;&gt;ActionText::Record -->
<g id="edge35" class="edge">
<title>ActionText::RichText&#45;&gt;ActionText::Record</title>
<path fill="none" stroke="#344600" d="M1768.33,-671.73C1767.8,-661.96 1767.8,-650.94 1768.34,-641.17"/>
<polygon fill="#344600" stroke="#344600" points="1768.34,-671.83 1764.65,-682.16 1768.74,-676.81 1769.13,-681.8 1769.13,-681.8 1769.13,-681.8 1768.74,-676.81 1773.62,-681.44 1768.34,-671.83 1768.34,-671.83"/>
<polygon fill="#344600" stroke="#344600" points="1768.34,-641.14 1773.62,-631.53 1768.74,-636.16 1769.14,-631.18 1769.14,-631.18 1769.14,-631.18 1768.74,-636.16 1764.65,-630.82 1768.34,-641.14 1768.34,-641.14"/>
</g>
<!-- Mailboxer::Conversation::OptOut -->
<g id="node30" class="node">
<title>Mailboxer::Conversation::OptOut</title>
<ellipse fill="none" stroke="black" cx="340.68" cy="-178" rx="165.17" ry="18"/>
<text text-anchor="middle" x="340.68" y="-174.3" font-family="Times,serif" font-size="14.00">Mailboxer::Conversation::OptOut</text>
</g>
<!-- Mailboxer::Conversation -->
<g id="node31" class="node">
<title>Mailboxer::Conversation</title>
<ellipse fill="none" stroke="black" cx="490.68" cy="-265" rx="124.58" ry="18"/>
<text text-anchor="middle" x="490.68" y="-261.3" font-family="Times,serif" font-size="14.00">Mailboxer::Conversation</text>
</g>
<!-- Mailboxer::Conversation::OptOut&#45;&gt;Mailboxer::Conversation -->
<g id="edge39" class="edge">
<title>Mailboxer::Conversation::OptOut&#45;&gt;Mailboxer::Conversation</title>
<path fill="none" stroke="#04df9f" d="M383.46,-200.42C391.88,-204.8 400.61,-209.47 408.68,-214 424.34,-222.79 441.33,-233.02 455.76,-241.94"/>
<polygon fill="#04df9f" stroke="#04df9f" points="383.38,-200.38 376.55,-191.79 378.93,-198.08 374.49,-195.79 374.49,-195.79 374.49,-195.79 378.93,-198.08 372.43,-199.79 383.38,-200.38 383.38,-200.38"/>
<polygon fill="#04df9f" stroke="#04df9f" points="455.89,-242.02 462.01,-251.12 460.13,-244.66 464.38,-247.3 464.38,-247.3 464.38,-247.3 460.13,-244.66 466.76,-243.47 455.89,-242.02 455.89,-242.02"/>
<text text-anchor="middle" x="480.68" y="-217.8" font-family="Times,serif" font-size="14.00">conversation</text>
</g>
<!-- Mailboxer::Conversation::Unsubscriber -->
<g id="node37" class="node">
<title>Mailboxer::Conversation::Unsubscriber</title>
<ellipse fill="none" stroke="black" cx="193.68" cy="-91" rx="193.87" ry="18"/>
<text text-anchor="middle" x="193.68" y="-87.3" font-family="Times,serif" font-size="14.00">Mailboxer::Conversation::Unsubscriber</text>
</g>
<!-- Mailboxer::Conversation::OptOut&#45;&gt;Mailboxer::Conversation::Unsubscriber -->
<g id="edge40" class="edge">
<title>Mailboxer::Conversation::OptOut&#45;&gt;Mailboxer::Conversation::Unsubscriber</title>
<path fill="none" stroke="#912b43" d="M302.83,-155.11C280.95,-142.46 253.51,-126.59 231.62,-113.94"/>
<polygon fill="#912b43" stroke="#912b43" points="302.98,-155.2 309.39,-164.1 307.31,-157.7 311.64,-160.21 311.64,-160.21 311.64,-160.21 307.31,-157.7 313.89,-156.31 302.98,-155.2 302.98,-155.2"/>
<polygon fill="#912b43" stroke="#912b43" points="231.57,-113.91 225.17,-105.01 227.24,-111.41 222.92,-108.9 222.92,-108.9 222.92,-108.9 227.24,-111.41 220.66,-112.8 231.57,-113.91 231.57,-113.91"/>
</g>
<!-- Mailboxer::Conversation&#45;&gt;Mailboxer::Conversation::OptOut -->
<g id="edge41" class="edge">
<title>Mailboxer::Conversation&#45;&gt;Mailboxer::Conversation::OptOut</title>
<path fill="none" stroke="#47c050" d="M393.39,-249.97C370.77,-244.73 351.1,-237.83 343.68,-229 338.47,-222.8 336.66,-214.48 336.46,-206.42"/>
<polygon fill="#47c050" stroke="#47c050" points="393.47,-249.99 402.29,-256.52 398.36,-251.06 403.24,-252.12 403.24,-252.12 403.24,-252.12 398.36,-251.06 404.2,-247.72 393.47,-249.99 393.47,-249.99"/>
<polygon fill="#47c050" stroke="#47c050" points="336.47,-206.15 341.47,-196.39 336.72,-201.16 336.97,-196.16 336.97,-196.16 336.97,-196.16 336.72,-201.16 332.48,-195.94 336.47,-206.15 336.47,-206.15"/>
<text text-anchor="middle" x="374.18" y="-217.8" font-family="Times,serif" font-size="14.00">opt_outs</text>
</g>
<!-- Mailboxer::Conversation&#45;&gt;Mailboxer::Message -->
<g id="edge42" class="edge">
<title>Mailboxer::Conversation&#45;&gt;Mailboxer::Message</title>
<path fill="none" stroke="#29444f" d="M505.94,-291.69C512.29,-300.5 520.38,-309.72 529.68,-316 542,-324.32 556.29,-330.68 570.67,-335.54"/>
<polygon fill="#29444f" stroke="#29444f" points="505.76,-291.43 503.91,-280.62 502.97,-287.28 500.18,-283.14 500.18,-283.14 500.18,-283.14 502.97,-287.28 496.45,-285.65 505.76,-291.43 505.76,-291.43"/>
<polygon fill="#29444f" stroke="#29444f" points="571.07,-335.67 579.25,-342.96 575.84,-337.17 580.61,-338.67 580.61,-338.67 580.61,-338.67 575.84,-337.17 581.96,-334.38 571.07,-335.67 571.07,-335.67"/>
<text text-anchor="middle" x="564.68" y="-304.8" font-family="Times,serif" font-size="14.00">messages</text>
</g>
<!-- Mailboxer::Conversation&#45;&gt;Mailboxer::Receipt -->
<g id="edge43" class="edge">
<title>Mailboxer::Conversation&#45;&gt;Mailboxer::Receipt</title>
<path fill="none" stroke="#5d3f89" d="M525.35,-241.67C544.87,-229.11 569.14,-213.48 588.56,-200.97"/>
<polygon fill="#5d3f89" stroke="#5d3f89" points="525.17,-241.79 514.33,-243.42 520.97,-244.5 516.76,-247.21 516.76,-247.21 516.76,-247.21 520.97,-244.5 519.2,-250.99 525.17,-241.79 525.17,-241.79"/>
<polygon fill="#5d3f89" stroke="#5d3f89" points="588.7,-200.88 599.54,-199.25 592.9,-198.18 597.11,-195.47 597.11,-195.47 597.11,-195.47 592.9,-198.18 594.67,-191.69 588.7,-200.88 588.7,-200.88"/>
<text text-anchor="middle" x="593.68" y="-217.8" font-family="Times,serif" font-size="14.00">receipts</text>
</g>
<!-- Mailboxer::Mailbox -->
<g id="node32" class="node">
<title>Mailboxer::Mailbox</title>
<polygon fill="none" stroke="black" points="5257.18,-812 5102.18,-812 5102.18,-776 5257.18,-776 5257.18,-812"/>
<text text-anchor="middle" x="5179.68" y="-790.3" font-family="Times,serif" font-size="14.00">Mailboxer::Mailbox</text>
</g>
<!-- Mailboxer::Message&#45;&gt;Mailboxer::Conversation -->
<g id="edge44" class="edge">
<title>Mailboxer::Message&#45;&gt;Mailboxer::Conversation</title>
<path fill="none" stroke="#40128b" d="M630.85,-326.69C622.01,-317.59 611.11,-307.82 599.68,-301 588.33,-294.22 575.51,-288.6 562.76,-284"/>
<polygon fill="#40128b" stroke="#40128b" points="630.94,-326.78 634.47,-337.17 634.35,-330.44 637.76,-334.1 637.76,-334.1 637.76,-334.1 634.35,-330.44 641.05,-331.03 630.94,-326.78 630.94,-326.78"/>
<polygon fill="#40128b" stroke="#40128b" points="562.51,-283.91 554.51,-276.41 557.78,-282.29 553.05,-280.67 553.05,-280.67 553.05,-280.67 557.78,-282.29 551.59,-284.93 562.51,-283.91 562.51,-283.91"/>
</g>
<!-- Mailboxer::Notification -->
<g id="node34" class="node">
<title>Mailboxer::Notification</title>
<ellipse fill="none" stroke="black" cx="749.68" cy="-91" rx="117.78" ry="18"/>
<text text-anchor="middle" x="749.68" y="-87.3" font-family="Times,serif" font-size="14.00">Mailboxer::Notification</text>
</g>
<!-- Mailboxer::Notification&#45;&gt;Mailboxer::Message -->
<g id="edge45" class="edge">
<title>Mailboxer::Notification&#45;&gt;Mailboxer::Message</title>
<path fill="none" stroke="black" d="M748.83,-109.06C746.49,-143.69 737.96,-223.93 707.68,-283 697.78,-302.33 681.63,-321.13 669.21,-334.05"/>
</g>
<!-- Mailboxer::Notification&#45;&gt;Mailboxer::Receipt -->
<g id="edge48" class="edge">
<title>Mailboxer::Notification&#45;&gt;Mailboxer::Receipt</title>
<path fill="none" stroke="#f20d64" d="M702.44,-112.56C693.96,-116.92 685.37,-121.79 677.68,-127 666.66,-134.46 655.6,-144.02 646.31,-152.79"/>
<polygon fill="#f20d64" stroke="#f20d64" points="702.6,-112.48 713.56,-112.07 707.08,-110.26 711.56,-108.04 711.56,-108.04 711.56,-108.04 707.08,-110.26 709.56,-104.01 702.6,-112.48 702.6,-112.48"/>
<polygon fill="#f20d64" stroke="#f20d64" points="646.15,-152.94 635.84,-156.66 642.56,-156.42 638.97,-159.89 638.97,-159.89 638.97,-159.89 642.56,-156.42 642.1,-163.13 646.15,-152.94 646.15,-152.94"/>
<text text-anchor="middle" x="706.68" y="-130.8" font-family="Times,serif" font-size="14.00">receipts</text>
</g>
<!-- Mailboxer::Sender -->
<g id="node38" class="node">
<title>Mailboxer::Sender</title>
<ellipse fill="none" stroke="black" cx="626.68" cy="-18" rx="96.68" ry="18"/>
<text text-anchor="middle" x="626.68" y="-14.3" font-family="Times,serif" font-size="14.00">Mailboxer::Sender</text>
</g>
<!-- Mailboxer::Notification&#45;&gt;Mailboxer::Sender -->
<g id="edge46" class="edge">
<title>Mailboxer::Notification&#45;&gt;Mailboxer::Sender</title>
<path fill="none" stroke="#e6fa63" d="M712.42,-68.49C697.01,-59.6 679.19,-49.31 663.8,-40.43"/>
<polygon fill="#e6fa63" stroke="#e6fa63" points="712.49,-68.53 718.91,-77.43 716.82,-71.03 721.15,-73.53 721.15,-73.53 721.15,-73.53 716.82,-71.03 723.4,-69.64 712.49,-68.53 712.49,-68.53"/>
<polygon fill="#e6fa63" stroke="#e6fa63" points="663.72,-40.38 657.31,-31.48 659.39,-37.88 655.06,-35.38 655.06,-35.38 655.06,-35.38 659.39,-37.88 652.81,-39.28 663.72,-40.38 663.72,-40.38"/>
</g>
<!-- Mailboxer::NotifiedObject -->
<g id="node39" class="node">
<title>Mailboxer::NotifiedObject</title>
<ellipse fill="none" stroke="black" cx="871.68" cy="-18" rx="130.78" ry="18"/>
<text text-anchor="middle" x="871.68" y="-14.3" font-family="Times,serif" font-size="14.00">Mailboxer::NotifiedObject</text>
</g>
<!-- Mailboxer::Notification&#45;&gt;Mailboxer::NotifiedObject -->
<g id="edge47" class="edge">
<title>Mailboxer::Notification&#45;&gt;Mailboxer::NotifiedObject</title>
<path fill="none" stroke="#7b8fef" d="M787.31,-68.1C802.12,-59.48 819.1,-49.6 833.92,-40.98"/>
<polygon fill="#7b8fef" stroke="#7b8fef" points="786.93,-68.32 776.02,-69.46 782.61,-70.84 778.29,-73.35 778.29,-73.35 778.29,-73.35 782.61,-70.84 780.55,-77.24 786.93,-68.32 786.93,-68.32"/>
<polygon fill="#7b8fef" stroke="#7b8fef" points="834.19,-40.82 845.1,-39.68 838.51,-38.3 842.84,-35.79 842.84,-35.79 842.84,-35.79 838.51,-38.3 840.57,-31.9 834.19,-40.82 834.19,-40.82"/>
</g>
<!-- Mailboxer::Receipt&#45;&gt;Mailboxer::Message -->
<g id="edge51" class="edge">
<title>Mailboxer::Receipt&#45;&gt;Mailboxer::Message</title>
<path fill="none" stroke="#401e21" d="M627.25,-206.07C632.66,-238.18 641.64,-291.41 647.07,-323.64"/>
<polygon fill="#401e21" stroke="#401e21" points="627.22,-205.91 630,-195.3 626.39,-200.98 625.56,-196.05 625.56,-196.05 625.56,-196.05 626.39,-200.98 621.12,-196.8 627.22,-205.91 627.22,-205.91"/>
<polygon fill="#401e21" stroke="#401e21" points="647.13,-324.02 644.36,-334.63 647.96,-328.95 648.8,-333.88 648.8,-333.88 648.8,-333.88 647.96,-328.95 653.23,-333.13 647.13,-324.02 647.13,-324.02"/>
<text text-anchor="middle" x="672.18" y="-261.3" font-family="Times,serif" font-size="14.00">message</text>
</g>
<!-- Mailboxer::Receipt&#45;&gt;Mailboxer::Notification -->
<g id="edge49" class="edge">
<title>Mailboxer::Receipt&#45;&gt;Mailboxer::Notification</title>
<path fill="none" stroke="#4e4489" d="M582.04,-154.69C571.9,-146.31 565.88,-136.51 573.68,-127 579.51,-119.9 617.36,-111.9 656.47,-105.35"/>
<polygon fill="#4e4489" stroke="#4e4489" points="582.35,-154.92 587.79,-164.44 586.39,-157.86 590.44,-160.8 590.44,-160.8 590.44,-160.8 586.39,-157.86 593.08,-157.16 582.35,-154.92 582.35,-154.92"/>
<polygon fill="#4e4489" stroke="#4e4489" points="656.56,-105.34 667.15,-108.16 661.49,-104.53 666.43,-103.72 666.43,-103.72 666.43,-103.72 661.49,-104.53 665.7,-99.28 656.56,-105.34 656.56,-105.34"/>
<text text-anchor="middle" x="614.18" y="-130.8" font-family="Times,serif" font-size="14.00">notification</text>
</g>
<!-- Mailboxer::Receiver -->
<g id="node40" class="node">
<title>Mailboxer::Receiver</title>
<ellipse fill="none" stroke="black" cx="509.68" cy="-91" rx="103.98" ry="18"/>
<text text-anchor="middle" x="509.68" y="-87.3" font-family="Times,serif" font-size="14.00">Mailboxer::Receiver</text>
</g>
<!-- Mailboxer::Receipt&#45;&gt;Mailboxer::Receiver -->
<g id="edge50" class="edge">
<title>Mailboxer::Receipt&#45;&gt;Mailboxer::Receiver</title>
<path fill="none" stroke="#54113e" d="M573.69,-156.76C565.64,-152.44 557.66,-147.51 550.68,-142 541.96,-135.11 533.85,-126.08 527.19,-117.58"/>
<polygon fill="#54113e" stroke="#54113e" points="573.84,-156.83 580.73,-165.37 578.3,-159.09 582.76,-161.35 582.76,-161.35 582.76,-161.35 578.3,-159.09 584.8,-157.34 573.84,-156.83 573.84,-156.83"/>
<polygon fill="#54113e" stroke="#54113e" points="527.03,-117.37 524.64,-106.67 524.03,-113.37 521.04,-109.37 521.04,-109.37 521.04,-109.37 524.03,-113.37 517.43,-112.06 527.03,-117.37 527.03,-117.37"/>
</g>
<!-- ActiveSupport::CurrentAttributes -->
<g id="node36" class="node">
<title>ActiveSupport::CurrentAttributes</title>
<ellipse fill="none" stroke="black" cx="2375.68" cy="-794" rx="167.07" ry="18"/>
<text text-anchor="middle" x="2375.68" y="-790.3" font-family="Times,serif" font-size="14.00">ActiveSupport::CurrentAttributes</text>
</g>
<!-- ActiveSupport::CurrentAttributes&#45;&gt;ActiveStorage::Current -->
<g id="edge27" class="edge">
<title>ActiveSupport::CurrentAttributes&#45;&gt;ActiveStorage::Current</title>
<path fill="none" stroke="black" d="M2375.68,-775.7C2375.68,-759.25 2375.68,-734.65 2375.68,-718.23"/>
</g>
</g>
</svg>
